# xmcd
#
# Track frame offsets: 
#        150
#        13838
#        28150
#        45086
#        57420
#        71406
#        85867
#        96069
#        108883
#        126281
#        139745
#        155143
#
# Disc length: 2257 seconds
#
# Revision: 0
# Processed by: cddbd v1.5.2PL0 Copyright (c) Steve Scherf et al.
# Submitted via: ExactAudioCopy v0.95b4
#
DISCID=9b08cf0c
DTITLE=Various Artist - BBQ The Blues
DYEAR=2004
DGENRE=Blues
TTITLE0=Joe Turner - Shake, Rattle and Roll
TTITLE1=Muddy Waters - Rollin' Stone
TTITLE2=Howlin' Wolf - Shake It For Me
TTITLE3=John Lee Hooker - I'm In The Mood
TTITLE4=Lightnin' Hopkins - Mojo Hand
TTITLE5=Jimmy Witherspoon - Ain't Nobody's Business
TTITLE6=Jimmy Rushing - She's Mine, She's Yours
TTITLE7=Lonnie Johnson - Love Is The Answer
TTITLE8=Otis Spann - It Must Have Been The Devil
TTITLE9=Memphis Slim - Memphis Slim USA
TTITLE10=Bessie Smith - Jazzbo Brown From Memphis Town
TTITLE11=Ray Charles - Blues Is My Middle Name
EXTD=
EXTT0=
EXTT1=
EXTT2=
EXTT3=
EXTT4=
EXTT5=
EXTT6=
EXTT7=
EXTT8=
EXTT9=
EXTT10=
EXTT11=
PLAYORDER=
